<?xml version="1.0" encoding="UTF-8"?>
<svg xmlns="http://www.w3.org/2000/svg" viewBox="0 0 81 81" width="324" height="324">
  <rect width="81" height="81" fill="#F9D900"/>
  <path d="M45.3217 0.578544C45.8303 0.941515 45.7679 1.46601 45.7679 1.97962C45.7679 10.6346 45.6677 19.2915 45.8152 27.9446C45.8719 31.333 45.6979 34.7467 46.2991 38.1224C46.4882 39.2113 46.0023 39.6995 44.8509 39.7285C43.8149 39.7539 42.7713 39.7394 41.7409 39.7285C40.2473 39.7285 40.1017 39.625 39.6613 38.2984C39.614 38.1604 39.5743 38.0226 39.5365 37.9028C39.2133 37.8483 39.0998 38.0661 38.958 38.2077C37.4701 39.6795 35.623 40.2385 33.5301 40.302C31.3352 40.3673 29.299 40.0406 27.5067 38.7013C25.3911 37.1206 24.2529 34.9936 23.7255 32.5435C22.6289 27.4619 22.5421 22.3803 24.3324 17.413C25.6313 13.8051 28.1608 11.3769 32.2237 10.7308C33.6249 10.5352 35.0477 10.5273 36.4511 10.7072C37.3416 10.8034 37.3642 10.4804 37.3604 9.85241C37.3434 7.22816 37.3605 4.6057 37.3509 1.98142C37.3509 1.417 37.4021 0.892518 37.9786 0.571289L45.3217 0.578544ZM37.3416 24.9466C37.3416 23.0464 37.3264 21.1462 37.3416 19.2462C37.3416 18.6635 37.1109 18.3387 36.5267 18.2244C34.2296 17.7579 32.772 18.6526 32.1669 20.8558C31.8285 22.0899 31.8437 23.3549 31.7095 24.609C31.4674 26.8521 31.6603 29.0572 32.4657 31.177C33.0216 32.6451 33.825 33.0209 35.3999 32.7322C36.5493 32.5199 37.3339 31.5018 37.3377 30.1914C37.3453 28.4383 37.3416 26.6942 37.3416 24.9466Z" fill="#040735"/>
  <path d="M0.078125 43.3968C0.380045 43.0356 0.780132 42.9633 1.23394 42.9688C2.31197 42.985 3.38815 42.9688 4.46617 42.9688C6.27029 42.9688 6.27029 42.9687 6.73149 44.7097C7.22976 44.3305 7.68913 43.9602 8.16881 43.6171C9.19249 42.8848 10.4192 42.4711 11.6882 42.4305C13.672 42.3439 15.6354 42.4052 17.3747 43.5141C19.3307 44.7621 20.4772 46.5934 20.9718 48.7624C22.1961 54.1407 22.2683 59.499 20.3327 64.7671C18.8231 68.8866 15.2056 71.2525 10.7472 71.0322C10.1063 70.9996 9.45057 71.1044 8.82457 70.8877C8.26881 70.6962 8.08361 70.9202 8.08361 71.4963C8.10953 73.956 8.09665 76.4177 8.08361 78.8776C8.08361 80.3676 7.86877 80.5717 6.31288 80.5732C4.64584 80.5732 2.97878 80.5732 1.32656 80.5732C0.848663 80.5732 0.40042 80.5464 0.078125 80.1456V43.3968ZM8.08553 57.4168C8.08553 59.1884 8.11513 60.9601 8.07073 62.73C8.05401 63.4271 8.41705 63.716 9.00793 63.8496C10.7583 64.2452 12.0383 63.624 12.6717 61.948C13.6849 59.2733 13.6108 56.4794 13.4127 53.6964C13.3386 52.6597 13.2071 51.6086 12.6959 50.6551C12.3402 49.994 11.8419 49.5968 11.0287 49.5715C9.30801 49.5136 8.10777 50.5883 8.08921 52.2804C8.07073 53.9727 8.08553 55.6974 8.08553 57.4077V57.4168Z" fill="#040735"/>
  <path d="M11.8264 11.05C13.0216 11.0839 14.213 11.0053 15.4099 11.2661C18.7503 11.997 20.4203 14.1768 21.0847 17.2198C21.6229 19.6748 21.4318 22.1531 21.339 24.6456C21.1831 28.8947 20.6709 33.1615 21.6395 37.3981C22.0961 39.3903 21.9365 39.5136 19.7355 39.5136C18.6555 39.5136 17.5756 39.5136 16.4973 39.5136C15.3505 39.5029 14.9664 39.2117 14.6676 38.1557C14.3948 37.2033 14.3781 37.1855 13.6581 37.8269C10.2603 40.8483 3.20662 40.5625 1.08367 35.6827C-0.33225 32.4326 -0.358232 29.0716 1.68493 25.9751C3.03961 23.9185 5.27019 23.068 7.59541 22.4854C9.14577 22.1087 10.7397 21.9238 12.3387 21.9351C12.9734 21.9351 13.2295 21.7386 13.2053 21.1114C13.2095 20.549 13.1403 19.9883 12.9993 19.4425C12.747 18.61 12.2014 18.1596 11.2679 18.1168C9.1065 17.9924 6.94505 18.3596 4.95844 19.1888C3.86169 19.6516 3.54808 19.5158 3.17137 18.4562C2.73341 17.2251 2.30104 15.9905 1.88536 14.7504C1.51421 13.6212 1.63297 13.3048 2.77424 12.7956C5.59818 11.5104 8.70625 10.9109 11.8264 11.05ZM13.196 29.822C13.1755 29.4572 13.1755 29.0916 13.196 28.7267C13.3055 27.9227 12.9325 27.669 12.1419 27.7458C11.279 27.8316 10.4514 27.978 9.69426 28.4122C8.6513 29.0073 8.33585 30.5153 9.00025 31.8161C9.42145 32.6416 10.52 32.9096 11.6446 32.4807C13.0346 31.9555 13.3946 30.928 13.196 29.8256V29.822Z" fill="#040735"/>
  <path d="M38.2096 57.0658C38.1125 53.6027 38.4562 50.437 40.0775 47.5596C41.9322 44.2651 44.833 42.5281 48.7405 42.4158C51.1948 42.3451 53.5633 42.5427 55.7132 43.8663C58.5448 45.6087 59.8467 48.2939 60.4631 51.3182C61.2868 55.3687 61.2383 59.4247 60.1399 63.4515C58.9128 67.9499 55.0351 71.2081 49.9827 71.161C47.6404 71.1374 45.3896 70.9289 43.3891 69.6778C40.7854 68.046 39.4555 65.5856 38.7794 62.7391C38.3161 60.8044 38.0733 58.8281 38.2096 57.0658ZM52.5491 56.6759C52.635 54.8882 52.5491 52.9427 51.8019 51.0789C51.3873 50.0363 50.7447 49.5939 49.624 49.5903C48.2549 49.5903 47.2724 50.5966 46.8932 52.2936C46.4058 54.4694 46.4674 56.6632 46.5607 58.8517C46.6009 60.0555 46.8477 61.2443 47.2911 62.3691C47.8103 63.6383 48.3595 64.001 49.7586 63.9611C50.8437 63.9303 51.5404 63.3736 51.9812 62.1135C52.5827 60.4055 52.5958 58.6287 52.5491 56.6759Z" fill="#040735"/>
  <path d="M44.1825 80.5741H13.1808C10.8132 80.5741 10.007 79.6545 9.88834 77.265C9.73586 74.1921 10.881 73.2445 13.8326 73.254C34.2485 73.3144 54.6646 73.2842 75.0824 73.2861C77.5782 73.2861 78.4443 74.1638 78.4466 76.6841C78.4466 77.0617 78.4466 77.4392 78.4466 77.816C78.4092 79.5357 77.3484 80.5629 75.5628 80.5645C67.7962 80.5719 60.0302 80.5719 52.2649 80.5645L44.1825 80.5741Z" fill="#040735"/>
  <path d="M69.8735 71.1388C67.6153 71.2728 65.2931 70.7492 63.0669 69.8217C61.4711 69.1569 61.313 68.6424 61.8569 67.338C62.333 66.1985 62.7019 65.0174 63.1196 63.8543C63.5637 62.6206 64.0399 62.4303 65.2987 63.0463C66.8287 63.7909 68.4094 64.2674 70.1539 64.1659C70.8577 64.1242 71.4711 63.9847 71.7478 63.2963C72.0244 62.6079 71.7478 62.0699 71.2698 61.5735C70.2592 60.5028 68.9062 59.9213 67.6359 59.2184C65.4512 58.0227 63.4451 56.6115 62.5719 54.2474C61.3507 50.9393 61.569 47.7255 63.9118 44.885C65.199 43.3287 67.0752 42.6187 69.085 42.4791C71.9923 42.2762 74.8904 42.4193 77.6398 43.528C78.0427 43.6911 78.4342 43.8759 78.8287 44.0534C79.4466 44.3287 79.6178 44.8269 79.4481 45.4049C79.0326 46.8198 78.6015 48.231 78.1307 49.6259C77.8091 50.5625 77.2954 50.7436 76.3093 50.3615C74.7625 49.7636 73.1987 49.298 71.4937 49.4139C70.9291 49.452 70.4003 49.5281 70.1915 50.0879C70.0817 50.3579 70.0652 50.6547 70.1445 50.9343C70.2239 51.2141 70.3947 51.4616 70.6318 51.6404C71.5107 52.3651 72.5137 52.9086 73.5449 53.4285C75.4945 54.4231 77.3085 55.6024 78.5524 57.3941C81.2807 61.3235 80.3103 67.5536 75.948 69.9486C74.4707 70.7602 72.8185 71.1388 69.8735 71.1388Z" fill="#040735"/>
  <path d="M30.4853 45.1058C32.4808 42.8966 34.9419 42.511 37.7345 43.3018C38.4084 43.4937 38.7833 43.8757 38.7094 44.5266C38.503 46.3198 38.3061 48.1237 37.9957 49.9061C37.8272 50.8799 37.4693 51.0017 36.4678 50.8027C36.0097 50.7113 35.5421 50.6575 35.0764 50.6019C32.8935 50.3437 31.6516 51.8697 31.6913 53.6825C31.8011 58.7465 31.7311 63.8122 31.7273 68.878C31.7273 70.2982 31.3865 70.6263 29.9155 70.6317C28.3101 70.6317 26.6971 70.6443 25.103 70.6317C23.8345 70.6209 23.4805 70.2731 23.4805 69.086C23.4805 60.9569 23.4805 52.823 23.4805 44.6845C23.4805 43.5062 23.6698 43.3413 24.908 43.336C26.1461 43.3305 27.3691 43.379 28.5884 43.3198C29.5955 43.2714 30.2487 43.5206 30.2922 44.5858C30.3326 44.7663 30.3975 44.9411 30.4853 45.1058Z" fill="#040735"/>
</svg>
